<svg id="Capa_1" enable-background="new 0 0 512 512" height="512" viewBox="0 0 512 512" width="512" xmlns="http://www.w3.org/2000/svg"><g><path d="m30 45h226v229.956h-226z" fill="none"/><path d="m256 45h226v229.956h-226z" fill="none"/><path d="m222.384 358.214v85.626h33.616l17.88-39.84-17.88-45.786z" fill="#bee3ed"/><path d="m256 358.214h33.616v85.626h-33.616z" fill="#91c3d8"/><path d="m75.059 436.64v60.36h180.941l13.56-27.96-13.56-32.4z" fill="#e6f6ff"/><path d="m256 436.64h180.941v60.36h-180.941z" fill="#bee3ed"/><g><path d="m19.12 35v249.842h236.88l36.6-132.842-36.6-117z" fill="#28e7ef"/><path d="m256 35h236.88v249.842h-236.88z" fill="#1cace7"/></g><path d="m0 304.956v59.031h256l10.44-30.947-10.44-28.084-135-11.276z" fill="#e6f6ff"/><path d="m512 304.956-134.68-16.556-121.32 16.556v59.031h256z" fill="#bee3ed"/><path d="m30 274.956v-229.956h226l8.52-14.32-8.52-15.68h-256v289.956h256l8.52-14.636-8.52-15.364z" fill="#3869ad"/><path d="m512 15h-256v30h226v229.956h-226v30h256z" fill="#00457f"/><path d="m241 75.084v30h15l4.44-15-4.44-15z" fill="#3869ad"/><path d="m256 75.084h15v30h-15z" fill="#00457f"/></g></svg>